<svg width="58.000000" height="69.000000" viewBox="0 0 58 69" fill="none" xmlns="http://www.w3.org/2000/svg" xmlns:xlink="http://www.w3.org/1999/xlink">
	<desc>
			Created with Pixso.
	</desc>
	<defs>
		<filter id="filter_14_857_dd" x="0.000000" y="0.000000" width="58.000000" height="64.000000" filterUnits="userSpaceOnUse" color-interpolation-filters="sRGB">
			<feFlood flood-opacity="0" result="BackgroundImageFix"/>
			<feBlend mode="normal" in="SourceGraphic" in2="BackgroundImageFix" result="shape"/>
			<feGaussianBlur stdDeviation="2" result="effect_layerBlur_1"/>
		</filter>
		<clipPath id="clip14_861">
			<rect id="Frame" width="24.000000" height="24.000000" transform="translate(17.000000 17.000000)" fill="white" fill-opacity="0"/>
		</clipPath>
	</defs>
	<g filter="url(#filter_14_857_dd)">
		<path id="Vector" d="M29.51 57.52C29.5 57.65 29.44 57.77 29.35 57.86C29.26 57.95 29.13 58 29.01 58C28.72 58 28.5 57.79 28.49 57.52C28.34 54.35 26.73 52.3 23.65 51.37C13.53 48.96 6 39.86 6 29C6 16.29 16.29 6 29 6C41.7 6 52 16.29 52 29C52 39.86 44.47 48.96 34.34 51.37C31.26 52.3 29.65 54.35 29.51 57.52L29.51 57.52Z" fill="#FF4433" fill-opacity="1.000000" fill-rule="nonzero"/>
	</g>
	<path id="Vector" d="M29.51 57.52C29.5 57.65 29.44 57.77 29.35 57.86C29.26 57.95 29.13 58 29.01 58C28.72 58 28.5 57.79 28.49 57.52C28.34 54.35 26.73 52.3 23.65 51.37C13.53 48.96 6 39.86 6 29C6 16.29 16.29 6 29 6C41.7 6 52 16.29 52 29C52 39.86 44.47 48.96 34.34 51.37C31.26 52.3 29.65 54.35 29.51 57.52L29.51 57.52Z" fill="#FF4433" fill-opacity="1.000000" fill-rule="nonzero"/>
	<path id="Vector" d="M29 69C26.79 69 25 67.21 25 65C25 62.79 26.79 61 29 61C31.21 61 33 62.79 33 65C33 67.21 31.21 69 29 69Z" fill="#FFFFFF" fill-opacity="1.000000" fill-rule="nonzero"/>
	<path id="Vector" d="M29 67C29.26 67 29.53 66.95 29.77 66.86C30.02 66.76 30.25 66.61 30.44 66.43C30.63 66.24 30.78 66.02 30.88 65.77C30.99 65.53 31.04 65.26 31.04 65C31.04 64.73 30.99 64.47 30.88 64.22C30.78 63.97 30.63 63.75 30.44 63.57C30.25 63.38 30.02 63.23 29.77 63.14C29.53 63.04 29.26 62.99 29 63C28.47 63.01 27.98 63.22 27.61 63.6C27.25 63.97 27.04 64.47 27.04 65C27.04 65.52 27.24 66.02 27.61 66.39C27.98 66.77 28.47 66.98 29 67Z" fill="#FF4433" fill-opacity="1.000000" fill-rule="evenodd"/>
	<rect id="Frame" width="24.000000" height="24.000000" transform="translate(17.000000 17.000000)" fill="#FFFFFF" fill-opacity="0"/>
	<g clip-path="url(#clip14_861)">
		<path id="Vector" d="M34 32.67C33.87 32.64 33.75 32.61 33.62 32.59C32.08 31.86 30.54 31.5 29 31.5C27.47 31.5 25.93 31.85 24.4 32.57C24.27 32.6 24.13 32.63 23.99 32.66L23.99 30.61C24.02 29.75 23.74 28.91 23.19 28.25C22.64 27.6 21.86 27.16 21.01 27.03L20.68 25.87C19.96 23.35 21.4 20.72 23.98 19.84C25.65 19.28 27.32 19 28.99 19C30.66 19 32.34 19.28 34.01 19.85C36.59 20.72 38.03 23.35 37.31 25.87L36.98 27.03C36.15 27.16 35.39 27.57 34.84 28.21C34.3 28.84 33.99 29.66 34 30.5L34 32.67ZM27.5 23.75C27.5 23.94 27.42 24.13 27.28 24.28C27.13 24.42 26.94 24.5 26.75 24.5C26.55 24.5 26.36 24.42 26.21 24.28C26.07 24.13 26 23.94 26 23.75C26 23.55 26.07 23.36 26.21 23.21C26.36 23.07 26.55 23 26.75 23C26.94 23 27.13 23.07 27.28 23.21C27.42 23.36 27.5 23.55 27.5 23.75ZM26.75 28.5C26.94 28.5 27.13 28.42 27.28 28.28C27.42 28.13 27.5 27.94 27.5 27.75C27.5 27.55 27.42 27.36 27.28 27.21C27.13 27.07 26.94 27 26.75 27C26.55 27 26.36 27.07 26.21 27.21C26.07 27.36 26 27.55 26 27.75C26 27.94 26.07 28.13 26.21 28.28C26.36 28.42 26.55 28.5 26.75 28.5ZM32 27.75C32 27.94 31.92 28.13 31.78 28.28C31.63 28.42 31.44 28.5 31.25 28.5C31.05 28.5 30.86 28.42 30.71 28.28C30.57 28.13 30.5 27.94 30.5 27.75C30.5 27.55 30.57 27.36 30.71 27.21C30.86 27.07 31.05 27 31.25 27C31.44 27 31.63 27.07 31.78 27.21C31.92 27.36 32 27.55 32 27.75ZM31.25 24.5C31.44 24.5 31.63 24.42 31.78 24.28C31.92 24.13 32 23.94 32 23.75C32 23.55 31.92 23.36 31.78 23.21C31.63 23.07 31.44 23 31.25 23C31.05 23 30.86 23.07 30.71 23.21C30.57 23.36 30.5 23.55 30.5 23.75C30.5 23.94 30.57 24.13 30.71 24.28C30.86 24.42 31.05 24.5 31.25 24.5Z" fill="#FFFFFF" fill-opacity="1.000000" fill-rule="evenodd"/>
		<path id="Vector" d="M35 33.6L35 30.5C35 29.98 35.16 29.47 35.46 29.05C35.76 28.62 36.18 28.31 36.67 28.14C37.16 27.96 37.69 27.95 38.19 28.09C38.69 28.24 39.13 28.53 39.45 28.94C39.77 29.35 39.96 29.84 39.99 30.36C40.02 30.88 39.89 31.39 39.61 31.83C39.33 32.27 38.93 32.61 38.45 32.81C37.97 33 37.44 33.05 36.93 32.93L38.13 34.13L36.5 40L35 40L35 36.63C31.01 37.12 26.98 37.12 23 36.63L23 40L21.55 40L19.88 34.11L21.06 32.93C20.55 33.05 20.02 33 19.54 32.81C19.06 32.61 18.66 32.27 18.38 31.83C18.1 31.39 17.97 30.88 18 30.36C18.03 29.84 18.22 29.35 18.54 28.94C18.86 28.53 19.3 28.24 19.8 28.09C20.3 27.95 20.83 27.96 21.32 28.13C21.81 28.31 22.23 28.62 22.53 29.05C22.83 29.47 23 29.98 23 30.5L23 33.6C25 32.86 27 32.5 29 32.5C31 32.5 33 32.86 35 33.6Z" fill="#FFFFFF" fill-opacity="1.000000" fill-rule="nonzero"/>
	</g>
</svg>
